<svg width="1000" height="1000" viewBox="0 0 1000 1000" fill="none" xmlns="http://www.w3.org/2000/svg">
<path d="M518.069 112.448C517.934 112.343 517.77 112.28 517.599 112.266C517.428 112.253 517.257 112.289 517.107 112.372C516.956 112.454 516.833 112.579 516.753 112.73C516.672 112.881 516.638 113.053 516.654 113.224C516.976 116.903 517.143 120.335 517.154 123.521C517.373 185.613 517.339 230.468 517.051 258.088C517.028 260.928 516.872 264.521 516.585 268.868C516.566 269.155 516.474 269.433 516.319 269.676C516.164 269.919 515.949 270.118 515.696 270.256C515.443 270.394 515.159 270.465 514.87 270.464C514.582 270.462 514.299 270.388 514.047 270.248L460.785 241.082C460.226 240.773 459.76 240.321 459.435 239.772C459.11 239.223 458.938 238.597 458.937 237.96V15.5666C458.937 15.2954 459.007 15.0289 459.141 14.7933C459.276 14.5576 459.47 14.3607 459.704 14.2217C459.939 14.0828 460.206 14.0065 460.48 14.0004C460.755 13.9943 461.026 14.0585 461.268 14.1867C472.329 20.2005 478.412 23.489 479.517 24.0525C488.236 28.4852 494.037 33.1421 502.6 37.3678C503.072 37.5978 506.145 39.3513 511.819 42.6284C534.793 55.9207 551.155 65.2115 560.903 70.5009C562.077 71.1333 563.263 71.7887 564.46 72.4671C586.49 84.713 608.451 96.9934 630.412 110.55C642.313 117.909 652.292 123.676 660.349 127.85C673.988 134.904 684.813 141.941 700.818 150.531C707.16 153.946 714.497 158.206 722.83 163.311C731.796 168.808 739.1 173.045 744.739 176.023C745.516 176.439 746.148 177.082 746.552 177.868C747.669 180.076 748.261 182.675 748.33 185.664C748.94 216.94 748.946 253 748.348 293.843C748.267 298.66 748.21 302.719 748.175 306.02C748.172 306.5 748.04 306.971 747.792 307.383C747.543 307.795 747.189 308.133 746.764 308.361C746.339 308.59 745.86 308.702 745.377 308.684C744.893 308.667 744.423 308.521 744.014 308.262C738.409 304.663 732.821 301.334 727.25 298.275C713.904 290.945 704.322 284.27 692.807 277.112C692.098 276.668 691.514 276.052 691.109 275.322C690.705 274.592 690.493 273.772 690.493 272.938V213.157C690.493 212.746 690.389 212.34 690.19 211.979C689.991 211.617 689.703 211.311 689.354 211.088C676.681 202.947 664.475 197.134 651.147 189.079C629.531 175.988 610.712 164.191 586.421 151.1C570.514 142.533 553.445 132.794 535.213 121.882C529.084 118.208 522.973 116.19 518.069 112.448Z" fill="#F19026"/>
<path d="M414.054 741.053C411.701 741.076 409.388 740.438 407.116 739.141C396.115 732.837 380.879 723.83 366.814 716.183C351.331 707.744 342.178 702.623 339.355 700.82C327.935 693.507 316.849 687.083 306.094 681.548C286.744 671.611 273.54 661.639 254.103 651.581C242.374 645.495 228.636 637.59 212.889 627.865C212.594 627.678 212.357 627.412 212.205 627.099C212.052 626.785 211.991 626.436 212.028 626.091C212.12 625.276 212.39 624.398 212.837 623.456C212.882 623.37 212.9 623.273 212.89 623.176C212.881 623.08 212.843 622.988 212.782 622.91C212.721 622.833 212.639 622.774 212.545 622.74C212.452 622.705 212.35 622.697 212.252 622.716C211.736 622.83 211.219 622.71 210.703 622.354C220.607 616.739 230.357 610.878 239.952 604.77C245.995 600.912 253.208 597.398 258.631 594.126C290.423 574.963 311.139 562.568 320.779 556.942C332.366 550.208 344.485 544.249 356.536 536.792C370.401 528.215 383.243 520.62 395.065 514.006C399.506 511.526 403.363 507.479 408.803 505.894C409.179 505.783 409.517 505.57 409.781 505.28C410.045 504.99 410.224 504.634 410.301 504.249C410.377 503.865 410.347 503.466 410.213 503.098C410.08 502.729 409.848 502.404 409.543 502.157C400.867 495.13 391.415 489.257 381.189 484.538C375.933 482.116 365.884 476.157 351.044 466.661C345.294 462.975 336.405 457.768 324.377 451.04C314.312 445.414 305.394 440.201 297.624 435.402C286.48 428.524 276.357 422.554 267.256 417.49C260.416 413.678 250.253 407.794 236.767 399.837C226.208 393.614 215.724 387.712 205.314 382.132L407.391 262.176C407.902 261.87 408.477 261.676 409.078 261.608L410.679 261.315C411.115 261.234 411.516 261.022 411.828 260.706C412.139 260.39 412.346 259.986 412.421 259.549C412.496 259.112 412.436 258.662 412.247 258.26C412.059 257.858 411.752 257.524 411.368 257.302L209.515 140.085C209.462 140.052 209.418 140.007 209.388 139.953C209.358 139.898 209.342 139.837 209.343 139.775C209.343 138.282 208.757 137.18 207.587 136.468C225.904 126.077 244.003 115.307 261.885 104.158C269.683 99.2845 276.587 95.9088 283.749 91.1898C290.549 86.6947 296.867 84.5247 303.151 80.1157C308.327 76.4874 312.9 73.6514 316.871 71.6076C323.654 68.1287 329.473 64.2191 334.328 61.584C352.255 51.8934 371.967 40.6298 393.464 27.7932C399.644 24.1248 405.033 19.4575 410.989 16.6329C411.326 16.4733 411.697 16.3995 412.069 16.4183C412.441 16.4371 412.803 16.5479 413.122 16.7406C413.441 16.9334 413.707 17.2022 413.896 17.523C414.086 17.8438 414.193 18.2066 414.209 18.5791C414.564 26.7656 414.719 32.5122 414.673 35.819C414.134 69.9198 414.146 119.9 414.708 185.76C414.932 211.835 413.675 237.221 413.589 260.936C413.577 264.266 414.071 267.86 415.069 271.718C415.13 271.969 415.24 272.205 415.394 272.412C415.548 272.619 415.742 272.793 415.965 272.923C427.258 279.416 438.758 284.824 450.121 291.558C476.3 307.082 498.296 319.821 516.108 329.775C518.805 331.28 521.881 333.117 525.336 335.287C529.175 337.698 533.616 339.713 537.783 342.348C554.034 352.636 568.69 361.505 581.751 368.957C585.229 370.943 589.085 372.97 593.32 375.036C598.554 377.597 602.353 379.658 604.717 381.219C612.636 386.455 618.099 389.825 621.106 391.329C623.539 392.535 629.863 396.152 640.078 402.179C646.298 405.842 652.358 409.591 658.257 413.426C672.994 423.002 683.771 428.565 703.104 439.863C708.579 443.066 715.172 445.202 720.371 449.886C720.52 450.024 720.682 450.145 720.853 450.248L786.772 489.688C786.976 489.808 787.144 489.979 787.261 490.185C787.378 490.39 787.44 490.623 787.44 490.859C787.44 491.095 787.378 491.328 787.261 491.533C787.144 491.738 786.976 491.91 786.772 492.03C776.282 498.322 761.293 507.054 741.805 518.226C732.095 523.806 723.849 529.524 714.742 534.243C712.045 535.632 708.395 537.722 703.793 540.512C681.941 553.716 663.617 564.515 648.823 572.908C634.775 580.882 620.882 590.234 605.56 598.638C587.639 608.473 572.747 617.101 552.175 629.553C530.414 642.746 506.169 656.943 479.439 672.145C472.002 676.381 463.807 682.358 456.18 686.681C443.567 693.834 431.034 700.987 418.581 708.14C415.115 710.126 413.434 712.905 413.537 716.476C413.778 724.731 413.95 732.924 414.054 741.053ZM416.757 643.486C428.853 637.091 440.698 630.116 452.29 622.561C466.487 613.306 477.866 606.486 486.428 602.1C486.979 601.825 499.988 594.195 525.456 579.211C534.598 573.82 550.074 565.657 560.817 558.82C567.359 554.663 576.162 549.502 587.226 543.336C597.326 537.71 609.279 530.574 623.086 521.929C631.235 516.819 639.601 511.934 648.186 507.272C654.648 503.77 662.946 498.776 673.08 492.288C673.25 492.182 673.39 492.034 673.487 491.859C673.584 491.684 673.636 491.486 673.638 491.285C673.64 491.083 673.591 490.883 673.497 490.704C673.402 490.524 673.265 490.37 673.097 490.256C648.737 474.084 621.141 458.653 594.577 443.548C571.301 430.304 538.712 409.482 513.302 395.91C494.847 386.059 476.529 374.124 456.353 362.791C451.894 360.277 447.004 356.488 442.666 354.145C436.71 350.953 428.153 346.487 416.998 340.746C416.877 340.684 416.744 340.651 416.608 340.652C416.473 340.653 416.34 340.688 416.221 340.752C416.102 340.817 416 340.91 415.926 341.023C415.851 341.136 415.805 341.266 415.793 341.401C414.002 362.86 413.52 384.526 414.346 406.399C415.138 427.428 414.863 453.124 414.484 470.502C414.197 484.004 414.14 496.014 414.312 506.532C414.76 532.653 414.725 560.731 414.209 590.768C413.899 608.679 414.846 623.129 414.966 642.401C414.966 642.612 415.02 642.819 415.123 643.003C415.226 643.186 415.375 643.34 415.555 643.449C415.735 643.559 415.941 643.619 416.151 643.626C416.362 643.632 416.57 643.584 416.757 643.486Z" fill="#F19026"/>
<path d="M208.098 137.188C209.269 137.898 209.854 138.996 209.854 140.484C209.854 140.545 209.87 140.606 209.9 140.66C209.93 140.715 209.974 140.76 210.027 140.792L411.958 257.596C412.343 257.817 412.65 258.15 412.838 258.55C413.026 258.95 413.087 259.399 413.012 259.834C412.937 260.27 412.73 260.672 412.418 260.987C412.107 261.302 411.706 261.514 411.27 261.595L409.668 261.886C409.067 261.954 408.491 262.147 407.98 262.453L205.824 381.985L2.11831 501.826C1.21127 502.158 0.505189 501.637 0 500.264L0.516649 260.719C2.15851 260.204 3.30667 260.428 3.96112 261.389C4.98298 262.853 5.5513 263.631 5.66611 263.723C8.57095 266.034 11.1199 267.79 13.3128 268.991C30.0759 278.213 45.2087 287.131 58.711 295.747C70.0261 302.972 82.3917 308.429 92.5701 314.968C108.294 325.059 124.035 333.056 140.345 342.924C155.156 351.9 175.358 362.952 190.72 371.928C194.291 374.01 198.711 376.133 203.981 378.295C204.482 378.498 205.026 378.575 205.564 378.519C206.102 378.463 206.617 378.276 207.065 377.974C207.513 377.672 207.879 377.264 208.132 376.787C208.384 376.311 208.514 375.779 208.511 375.24C208.258 325.562 208.339 283.894 208.752 250.233C209.114 220.286 207.977 182.753 208.649 150.129C208.695 147.932 208.184 146.038 207.116 144.448C206.902 144.134 206.61 143.885 206.272 143.727L201.467 141.496C204.223 140.283 206.433 138.847 208.098 137.188Z" fill="#DB4B06"/>
<path d="M200.392 142.019L205.184 144.247C205.521 144.405 205.812 144.653 206.025 144.967C207.09 146.555 207.6 148.446 207.554 150.64C206.884 183.22 208.017 220.701 207.657 250.607C207.245 284.221 207.164 325.833 207.416 375.442C207.419 375.98 207.289 376.511 207.038 376.987C206.787 377.463 206.421 377.87 205.975 378.172C205.528 378.473 205.014 378.661 204.477 378.716C203.941 378.772 203.399 378.696 202.899 378.493C197.644 376.333 193.236 374.214 189.675 372.134C174.355 363.171 154.21 352.134 139.44 343.171C123.175 333.316 107.478 325.33 91.7976 315.253C81.6475 308.723 69.3163 303.273 58.0326 296.058C44.5679 287.454 29.4771 278.548 12.7606 269.339C10.5737 268.14 8.03192 266.386 5.13515 264.078C5.02066 263.986 4.45392 263.21 3.4349 261.747C2.78227 260.787 1.6373 260.565 0 261.079C9.37727 254.532 19.0237 248.493 28.9391 242.964C45.0831 233.96 53.5443 229.213 54.3229 228.722C67.0835 220.684 78.3329 214.788 89.4791 207.213C92.6049 205.099 96.0569 203.031 99.8353 201.009C106.133 197.639 110.524 195.142 113.008 193.52C118.555 189.886 124.893 187.436 130.681 183.819C141.466 177.078 153.901 169.669 167.984 161.591C177.739 155.987 189.383 148.223 200.392 142.019Z" fill="#EE751C"/>
<path d="M2.10996 503.489C1.72112 504.716 1.84698 505.496 2.48741 505.829C28.8194 519.767 51.5661 534.979 76.0454 547.988C79.4992 549.835 82.3525 551.515 84.6055 553.029C93.9375 559.293 105.088 563.698 114.145 569.979C120.069 574.075 128.629 579.248 139.825 585.5C148.883 590.559 157.523 595.59 165.746 600.592C185.965 612.878 199.243 620.816 205.578 624.407C207.191 625.325 208.792 624.969 210.381 623.34C210.896 623.696 211.411 623.816 211.925 623.702C212.023 623.683 212.124 623.691 212.218 623.725C212.311 623.76 212.393 623.819 212.454 623.896C212.514 623.973 212.552 624.065 212.561 624.162C212.571 624.258 212.553 624.355 212.509 624.441C212.063 625.382 211.794 626.26 211.702 627.074C211.666 627.419 211.726 627.768 211.878 628.081C212.03 628.394 212.266 628.659 212.56 628.847C228.251 638.563 241.94 646.462 253.628 652.542C272.995 662.591 286.152 672.554 305.434 682.483C316.15 688.012 327.197 694.431 338.576 701.738C341.39 703.54 350.51 708.656 365.938 717.088C379.953 724.728 395.134 733.728 406.096 740.026C408.36 741.322 410.665 741.959 413.009 741.936L413.043 744.517C412.22 744.069 411.248 744.936 410.127 747.115C409.547 748.258 408.624 749.195 407.485 749.8C403.894 751.692 400.098 753.683 396.095 755.771C382.114 763.032 369.917 772.376 356.777 779.001C353.232 780.802 349.572 782.655 345.798 784.559C333.224 790.926 320.873 800.597 308.642 807.05C296.119 813.657 283.528 822.21 273.235 827.871C261.376 834.398 247.584 842.526 231.859 852.254C225.906 855.954 216.403 860.221 209.507 866.657L204.086 863.422C205.001 863.296 205.407 862.762 205.304 861.822C205.27 861.573 205.176 861.331 205.029 861.116C204.275 860.072 203.943 858.931 204.034 857.692C205.544 838.637 206.127 822.537 205.784 809.39C204.772 770.569 205.647 745.033 205.149 678.37C205.046 664.243 207.86 645.349 205.184 629.346C205.147 629.119 205.058 628.905 204.922 628.72C204.787 628.535 204.609 628.384 204.404 628.28C204.199 628.176 203.971 628.122 203.74 628.122C203.509 628.122 203.281 628.175 203.074 628.279L187.24 636.298C187.115 636.366 187 636.441 186.897 636.521C176.399 643.909 166.278 650.184 156.534 655.346C145.006 661.438 135.846 666.457 129.052 670.403C117.685 677.011 108.444 682.391 101.331 686.544C96.7336 689.228 90.4208 691.999 85.5146 695.458C80.3797 699.083 74.1928 702.903 66.9536 706.918C48.0152 717.432 37.105 724.246 11.6993 739.561C8.33705 741.591 6.58729 745.067 2.04138 741.609C1.94136 741.536 1.82493 741.489 1.70277 741.472C1.58061 741.455 1.45659 741.469 1.34218 741.512C1.22777 741.555 1.12662 741.625 1.04796 741.717C0.969304 741.81 0.915721 741.92 0.892062 742.039L0.463202 744.121L0 501.923C0.503195 503.299 1.20649 503.821 2.10996 503.489Z" fill="#EE751C"/>
<path d="M544.516 679.451C543.607 694.475 544.344 709.018 555.011 720.849C563.346 730.086 570.978 736.783 583.24 740.663C598.125 745.368 613.423 740.698 623.987 729.434C627.76 725.404 631.459 720.293 635.083 714.101C637.45 710.071 639.022 704.554 639.799 697.548C641.48 682.49 660.944 681.099 671.989 677.545C673.811 676.963 675.562 676.162 677.202 675.158C682.37 671.987 688.521 668.508 695.655 664.719C701.417 661.662 705.311 657.902 709.872 653.884C718.413 646.364 727.108 640.182 738.495 635.718C749.333 631.477 756.931 629.468 765.128 624.574C776.996 617.489 787.491 609.092 796.615 599.385C796.991 598.986 797.417 598.629 797.884 598.321C807.911 591.922 814.588 588.082 817.915 586.8C832.16 581.316 841.438 577.642 845.749 575.776C864.219 567.758 882.534 552.734 857.925 535.426C851.076 530.607 844.091 525.696 836.968 520.694L886.599 491.418C886.799 491.301 886.962 491.131 887.071 490.926C887.18 490.722 887.23 490.491 887.215 490.26C887.201 490.029 887.123 489.806 886.99 489.616C886.857 489.427 886.674 489.278 886.462 489.186C885.278 488.671 883.392 488.225 882.209 487.452C874.434 482.507 862.035 474.889 845.011 464.598C827.747 454.181 807.088 442.351 783.033 429.107C764.134 418.702 744.583 405.206 724.261 393.599C687.138 372.433 651.764 351.417 618.139 330.549C615.178 328.706 612.148 328.197 609.05 329.021C591.397 333.703 575.236 331.11 560.568 321.243C556.303 318.381 552.988 315.216 550.621 311.748C543.555 301.411 540.474 290.021 541.377 277.578C542.372 263.831 547.408 252.487 556.486 243.547C570.446 229.776 593.238 225.69 611.777 231.614C622.524 235.059 630.692 241.034 636.283 249.539C642.503 258.995 645.927 269.022 646.556 279.622C646.599 280.391 646.833 281.137 647.237 281.791C647.642 282.445 648.204 282.986 648.871 283.365C673.532 297.445 690.202 305.789 711.038 318.839C711.153 318.908 722.111 325.558 743.914 338.791C754.181 345.029 765.226 351.537 777.047 358.314C794.643 368.421 817.692 381.808 846.195 398.475C850.013 400.696 853.271 402.705 855.97 404.502C864.647 410.26 872.874 415.256 880.648 419.492C891.612 425.478 899.981 430.217 905.755 433.709C919.715 442.156 940.906 454.634 969.329 471.14C976.166 475.112 980.63 477.556 982.723 478.472C988.45 480.979 992.807 485.494 998.637 487.864C998.889 487.967 999.238 488.339 999.684 488.98C999.823 489.181 999.92 489.409 999.967 489.649C1000.01 489.889 1000.01 490.136 999.958 490.375C999.904 490.614 999.802 490.839 999.658 491.036C999.513 491.234 999.329 491.399 999.118 491.521C985.489 499.454 973.245 506.831 962.383 513.654C956.552 517.311 950.344 519.904 944.119 523.527C919.549 537.824 895.614 552.075 872.313 566.281C866.791 569.646 863.047 571.953 861.08 573.201C857.285 575.604 842.004 584.464 815.239 599.78C809.1 603.295 797.198 610.186 779.534 620.453C762.933 630.092 740.216 643.462 711.381 660.563C697.319 668.908 686.703 674.523 672.452 682.885C667.867 685.575 660.361 689.553 649.934 694.818C649.302 695.134 648.758 695.602 648.351 696.181C647.944 696.759 647.687 697.43 647.602 698.132C646.213 709.362 641.24 722.548 633.025 730.601C631.561 732.032 630.401 733.377 629.543 734.636C628.606 736.021 627.428 737.189 626.011 738.139C611.959 747.491 596.839 750.387 580.65 746.827C572.098 744.939 564.678 741.035 558.39 735.117C543.127 720.728 536.438 699.643 544.516 679.451Z" fill="#F19026"/>
<path d="M544.516 679.451C551.216 663.23 562.963 652.482 579.758 647.205C590.717 643.754 603.082 645.694 614.143 648.75C614.859 648.944 615.6 649.019 616.338 648.973C620.111 648.767 624.153 647.119 628.463 644.028C635.78 638.763 642.24 634.602 647.842 631.546C661.207 624.242 703.007 599.866 773.24 558.417C794.608 545.814 815.851 533.239 836.968 520.694C844.091 525.696 851.076 530.607 857.925 535.426C882.534 552.734 864.219 567.758 845.749 575.776C841.438 577.642 832.16 581.316 817.915 586.8C814.588 588.082 807.911 591.922 797.884 598.321C797.417 598.629 796.991 598.986 796.615 599.385C787.491 609.092 776.996 617.489 765.128 624.574C756.931 629.468 749.333 631.477 738.495 635.718C727.108 640.182 718.413 646.364 709.872 653.884C705.311 657.902 701.417 661.662 695.655 664.719C688.521 668.508 682.37 671.987 677.202 675.158C675.562 676.162 673.811 676.963 671.989 677.545C660.944 681.099 641.48 682.49 639.799 697.548C639.022 704.554 637.45 710.071 635.083 714.101C631.459 720.293 627.76 725.404 623.987 729.434C613.423 740.698 598.125 745.368 583.24 740.663C570.978 736.783 563.346 730.086 555.011 720.849C544.344 709.018 543.607 694.475 544.516 679.451Z" fill="#F19026"/>
<path d="M203.064 861.826C195.092 857.737 187.268 853.373 179.593 848.735C165.325 840.134 149.883 831.218 133.266 821.988C125.454 817.648 118.406 813.495 112.121 809.532C103.602 804.151 94.4325 799.388 83.8088 793.031C67.0778 783.013 51.4816 773.875 37.0202 765.616C31.1695 762.269 24.9881 758.545 18.4759 754.444C12.1462 750.457 5.98757 746.654 0 743.033L0.427683 740.959C0.451278 740.841 0.504714 740.731 0.583157 740.639C0.661601 740.547 0.762467 740.477 0.876563 740.434C0.990659 740.392 1.11434 740.378 1.23617 740.395C1.35799 740.412 1.4741 740.459 1.57385 740.531C6.10729 743.975 7.85225 740.514 11.2053 738.492C36.5412 723.242 47.4216 716.457 66.3081 705.988C73.5273 701.99 79.6973 698.186 84.8181 694.576C89.7108 691.132 96.0063 688.373 100.591 685.7C107.685 681.565 116.9 676.208 128.237 669.628C135.011 665.699 144.146 660.701 155.643 654.635C165.359 649.495 175.453 643.247 185.923 635.89C186.025 635.811 186.14 635.736 186.265 635.668L202.055 627.683C202.261 627.58 202.489 627.526 202.719 627.527C202.95 627.527 203.176 627.581 203.381 627.684C203.586 627.788 203.763 627.938 203.898 628.122C204.033 628.306 204.123 628.52 204.159 628.745C206.828 644.68 204.022 663.494 204.125 677.561C204.621 743.941 203.748 769.368 204.758 808.024C205.1 821.115 204.518 837.147 203.013 856.12C202.921 857.354 203.252 858.491 204.005 859.53C204.151 859.744 204.245 859.985 204.279 860.233C204.381 861.169 203.976 861.7 203.064 861.826Z" fill="#DB4B06"/>
<path d="M460.141 984.223C458.154 950.179 459.25 921.434 459.148 877.275C459.068 844.211 459.033 826.504 459.045 824.153C459.25 787.087 459.296 762.149 459.182 749.338C459.148 745.846 461.769 744.315 464.562 742.664C484.084 731.023 500.734 721.527 514.51 714.176C514.744 714.049 515.007 713.985 515.274 713.991C515.54 713.997 515.801 714.074 516.03 714.212C516.26 714.351 516.45 714.547 516.583 714.782C516.716 715.017 516.787 715.282 516.789 715.552V883.433C516.79 883.64 516.845 883.842 516.949 884.02C517.054 884.199 517.203 884.346 517.382 884.447C517.562 884.549 517.764 884.6 517.97 884.598C518.176 884.595 518.377 884.537 518.554 884.431L687.536 783.503C688.238 783.086 688.778 782.444 689.071 781.682C689.363 780.92 689.39 780.083 689.147 779.305C688.85 778.376 688.661 776.123 688.582 772.545C688.205 756.386 688.33 735.903 688.958 711.097C688.981 710.497 689.139 709.903 689.421 709.359C690.438 707.421 691.877 705.781 693.739 704.439C701.027 699.164 711.022 692.851 723.725 685.499C731.333 681.107 737.021 678.314 740.791 677.122C741.071 677.043 741.326 676.882 741.528 676.657L744.098 673.836C744.279 673.644 744.512 673.51 744.769 673.452C745.025 673.395 745.293 673.415 745.538 673.511C745.783 673.607 745.994 673.775 746.143 673.992C746.292 674.209 746.374 674.466 746.377 674.73V811.767C746.377 812.623 746.151 813.464 745.72 814.205C745.29 814.945 744.671 815.558 743.927 815.981C739.54 818.47 721.269 829.342 689.113 848.598C680.46 853.776 663.479 863.289 651.622 870.686C625.337 887.074 609.156 897.029 603.079 900.55C597.322 903.887 589.446 908.388 579.451 914.054C576.046 915.981 568.559 920.482 556.987 927.558C535.157 940.873 514.698 951.59 493.571 965.713C485.781 970.909 476.677 975.983 466.259 980.938C464.614 981.729 463.066 982.991 461.615 984.722C461.506 984.849 461.362 984.941 461.201 984.985C461.04 985.029 460.869 985.024 460.711 984.97C460.553 984.917 460.414 984.817 460.313 984.684C460.211 984.551 460.152 984.391 460.141 984.223Z" fill="#EE751C"/>
<path d="M413.043 743.583L412.753 983.949C412.75 984.15 412.692 984.347 412.585 984.518C412.478 984.688 412.326 984.824 412.147 984.911C411.968 984.997 411.77 985.031 411.574 985.007C411.379 984.983 411.195 984.904 411.042 984.777C408.557 982.753 406.67 981.395 405.382 980.705C384.383 969.421 357.74 952.84 335.475 940.452C322.427 933.205 310.559 925.423 295.015 916.261C266.822 899.652 238.532 882.915 210.145 866.052C217.019 859.599 226.493 855.32 232.427 851.611C248.102 841.856 261.851 833.707 273.674 827.162C283.934 821.485 296.486 812.91 308.969 806.284C321.162 799.814 333.474 790.117 346.009 783.733C349.771 781.824 353.419 779.966 356.953 778.16C370.052 771.517 382.211 762.148 396.148 754.867C400.138 752.774 403.923 750.778 407.503 748.88C408.638 748.274 409.557 747.334 410.136 746.189C411.253 744.003 412.222 743.135 413.043 743.583Z" fill="#DB4B06"/>
</svg>
