<svg id="Layer_1" height="512" viewBox="0 0 512 512" width="512" xmlns="http://www.w3.org/2000/svg" data-name="Layer 1"><g><g fill-rule="evenodd"><path d="m112.717 415.381v-44.769h236.56v44.769c0 31.724-52.956 57.442-118.28 57.442s-118.28-25.718-118.28-57.442z" fill="#f19a00"/><path d="m143.093 370.611h206.185v44.769c0 31.724-52.956 57.442-118.28 57.442-30.222 0-57.792-5.508-78.7-14.565-5.927-6.844-9.205-14.362-9.205-22.252v-65.395z" fill="#f9ac00"/><path d="m112.717 370.611v-44.77h236.56v44.77c0 31.724-52.956 57.442-118.28 57.442s-118.28-25.718-118.28-57.442z" fill="#fdc72e"/><path d="m143.093 325.842h206.185v44.77c0 31.724-52.956 57.442-118.28 57.442-34.894 0-66.255-7.34-87.905-19.012z" fill="#fcdb35"/><path d="m112.717 325.842v-44.769h236.56v44.769c0 31.725-52.956 57.442-118.28 57.442s-118.28-25.718-118.28-57.442z" fill="#f19a00"/><path d="m143.093 281.073h206.185v44.769c0 31.725-52.956 57.442-118.28 57.442-34.894 0-66.255-7.34-87.905-19.012v-83.2z" fill="#f9ac00"/><path d="m112.717 281.073v-44.769h236.56v44.769c0 31.725-52.956 57.442-118.28 57.442s-118.28-25.718-118.28-57.442z" fill="#fdc72e"/><path d="m143.093 236.303h206.185v44.769c0 31.725-52.956 57.442-118.28 57.442-34.894 0-66.255-7.34-87.905-19.012v-83.2z" fill="#fcdb35"/><path d="m112.717 236.303v-44.769h236.56v44.769c0 31.725-52.956 57.442-118.28 57.442s-118.28-25.718-118.28-57.442z" fill="#f19a00"/><path d="m143.093 191.534h206.185v44.769c0 31.725-52.956 57.442-118.28 57.442-34.894 0-66.255-7.34-87.905-19.012v-83.2z" fill="#f9ac00"/></g><ellipse cx="230.998" cy="191.534" fill="#fcdb35" rx="118.28" ry="57.442"/><ellipse cx="230.998" cy="191.534" fill="#f19a00" rx="104.28" ry="43.443"/><path d="m235.498 148.135c55.504.982 99.78 20.035 99.78 43.399s-44.276 42.417-99.78 43.4c-55.504-.982-99.78-20.036-99.78-43.4s44.276-42.417 99.78-43.399z" fill="#f9ac00" fill-rule="evenodd"/><path d="m259.479 173.346c.69 2.664-.91 5.384-3.574 6.074s-5.384-.91-6.074-3.574c-.254-.985-.788-1.889-1.535-2.704-2.258-2.463-6.275-4.108-10.844-4.913-.481-.085-.966-.16-1.454-.225v19.834c.767.171 1.506.343 2.202.517 1.476.369 3.025.818 4.647 1.356 5.106 1.695 9.567 4.009 12.595 7.129 3.635 3.745 5.272 8.375 3.845 14.078-.079.317-.213.758-.402 1.327-1.945 5.86-7.742 9.778-14.989 11.697-2.475.655-5.149 1.087-7.898 1.288v6.029c0 2.761-2.239 5-5 5s-5-2.239-5-5v-6.309c-2.749-.359-5.443-.953-7.963-1.789-7.615-2.528-13.741-7.276-15.647-14.474-.701-2.664.89-5.393 3.554-6.094s5.393.89 6.094 3.554c.931 3.514 4.533 6.036 9.124 7.56 1.53.508 3.159.899 4.838 1.177v-18.98c-5.298-1.183-10.564-2.67-14.632-5.448-1.46-.997-2.713-2.081-3.763-3.227-2.659-2.9-4.064-6.194-4.31-9.549-.248-3.378.697-6.718 2.732-9.697.785-1.15 1.729-2.237 2.822-3.239 2.908-2.667 6.871-4.567 11.297-5.71 1.872-.483 3.84-.835 5.854-1.056v-6.17c0-2.761 2.239-5 5-5s5 2.239 5 5v6.138c1.071.11 2.131.257 3.173.44 6.583 1.16 12.634 3.817 16.468 7.999 1.823 1.988 3.154 4.307 3.84 6.961zm-33.481-5.325c-1.154.163-2.277.383-3.354.661-2.903.75-5.386 1.89-7.04 3.406-.536.492-.984 1.002-1.338 1.521-.745 1.09-1.095 2.251-1.013 3.369.084 1.14.634 2.34 1.692 3.494.553.603 1.234 1.188 2.045 1.742 2.224 1.519 5.477 2.575 9.007 3.446v-17.64zm10 47.208c1.869-.176 3.677-.488 5.359-.934 4.149-1.099 7.311-2.872 8.075-5.174.03-.091.087-.302.167-.624.473-1.892-.081-3.441-1.306-4.703-1.832-1.888-4.902-3.411-8.571-4.629-1.077-.358-2.331-.714-3.724-1.067v17.132z" fill="#fcdb35" fill-rule="evenodd"/></g><g fill-rule="evenodd"><g><path d="m82.079 171.802v-62.734c0-2.51-2.047-4.558-4.558-4.558h-27.323c-2.51 0-4.558 2.047-4.558 4.557v62.735h-13.462c-1.639 0-3.04.91-3.707 2.406-.667 1.497-.406 3.147.69 4.365l31.682 35.211c.798.886 1.824 1.344 3.016 1.344s2.219-.457 3.016-1.344l31.682-35.211c1.096-1.218 1.357-2.868.69-4.365s-2.068-2.406-3.706-2.406h-13.463z" fill="#ed1717"/><path d="m82.079 171.802v-62.734c0-2.51-2.047-4.558-4.558-4.558h-18.886c-2.51 0-4.558 2.047-4.558 4.557v62.735h-11.962c-1.638 0-3.04.91-3.707 2.406-.667 1.497-.406 3.147.69 4.365l29.729 33.041 29.729-33.041c1.096-1.218 1.357-2.868.69-4.365s-2.068-2.406-3.706-2.406h-13.463z" fill="#ff3838"/></g><g><path d="m249.217 78.292v-62.735c0-2.51-2.047-4.557-4.558-4.557h-27.323c-2.51 0-4.558 2.047-4.558 4.557v62.735h-13.462c-1.639 0-3.04.91-3.707 2.406-.667 1.497-.406 3.147.69 4.365l31.682 35.211c.798.886 1.824 1.344 3.016 1.344s2.219-.457 3.016-1.344l31.682-35.211c1.096-1.218 1.357-2.868.69-4.365s-2.068-2.406-3.706-2.406h-13.463z" fill="#ed1717"/><path d="m249.217 78.292v-62.735c0-2.51-2.047-4.557-4.558-4.557h-18.886c-2.51 0-4.558 2.047-4.558 4.557v62.735h-11.962c-1.638 0-3.04.91-3.707 2.406-.667 1.497-.406 3.147.69 4.365l29.729 33.041 29.729-33.041c1.096-1.218 1.357-2.868.69-4.365s-2.068-2.406-3.706-2.406h-13.463z" fill="#ff3838"/></g><g><path d="m416.355 171.802v-62.734c0-2.51-2.047-4.558-4.558-4.558h-27.323c-2.51 0-4.558 2.047-4.558 4.557v62.735h-13.462c-1.639 0-3.04.91-3.707 2.406-.667 1.497-.406 3.147.69 4.365l31.682 35.211c.798.886 1.824 1.344 3.016 1.344s2.219-.457 3.016-1.344l31.682-35.211c1.096-1.218 1.357-2.868.69-4.365s-2.068-2.406-3.706-2.406z" fill="#ed1717"/><path d="m416.355 171.802v-62.734c0-2.51-2.047-4.558-4.558-4.558h-18.886c-2.51 0-4.558 2.047-4.558 4.557v62.735h-11.962c-1.638 0-3.04.91-3.707 2.406-.667 1.497-.406 3.147.69 4.365l29.729 33.041 29.729-33.041c1.096-1.218 1.357-2.868.69-4.365s-2.068-2.406-3.706-2.406h-13.462z" fill="#ff3838"/></g></g><g><g fill-rule="evenodd"><path d="m247.332 443.558v-44.769h236.56v44.769c0 31.724-52.956 57.442-118.28 57.442s-118.28-25.718-118.28-57.442z" fill="#fdc72e"/><path d="m277.707 398.789h206.185v44.769c0 31.724-52.956 57.442-118.28 57.442-34.894 0-66.255-7.34-87.905-19.012v-83.2z" fill="#fcdb35"/><path d="m247.332 398.789v-44.769h236.56v44.769c0 31.724-52.956 57.442-118.28 57.442s-118.28-25.718-118.28-57.442z" fill="#f19a00"/><path d="m277.707 354.019h206.185v44.769c0 31.724-52.956 57.442-118.28 57.442-34.894 0-66.255-7.34-87.905-19.012v-83.2z" fill="#f9ac00"/></g><ellipse cx="365.612" cy="354.019" fill="#fcdb35" rx="118.28" ry="57.442"/><ellipse cx="365.612" cy="354.019" fill="#f19a00" rx="104.28" ry="43.443"/><path d="m370.112 310.62c55.504.982 99.78 20.035 99.78 43.399s-44.276 42.417-99.78 43.4c-55.504-.982-99.78-20.036-99.78-43.4s44.276-42.417 99.78-43.399z" fill="#f9ac00" fill-rule="evenodd"/><path d="m394.093 335.831c.69 2.664-.91 5.384-3.574 6.074s-5.384-.91-6.074-3.574c-.254-.985-.788-1.889-1.535-2.704-2.258-2.463-6.275-4.108-10.844-4.913-.481-.085-.966-.16-1.454-.225v19.834c.767.171 1.506.343 2.202.517 1.476.369 3.025.818 4.647 1.356 5.106 1.695 9.567 4.009 12.595 7.129 3.635 3.745 5.272 8.375 3.845 14.078-.079.317-.213.758-.402 1.327-1.945 5.86-7.742 9.778-14.989 11.697-2.475.655-5.149 1.087-7.898 1.288v6.029c0 2.761-2.239 5-5 5s-5-2.239-5-5v-6.309c-2.749-.359-5.443-.953-7.963-1.789-7.615-2.528-13.741-7.276-15.647-14.474-.701-2.664.89-5.393 3.554-6.094s5.393.89 6.094 3.554c.931 3.514 4.533 6.036 9.124 7.56 1.53.508 3.159.899 4.838 1.177v-18.981c-5.298-1.183-10.564-2.67-14.632-5.448-1.46-.997-2.713-2.081-3.764-3.227-2.659-2.9-4.064-6.194-4.31-9.549-.248-3.378.697-6.718 2.732-9.697.785-1.15 1.729-2.237 2.822-3.239 2.908-2.667 6.871-4.567 11.297-5.71 1.872-.483 3.84-.835 5.854-1.057v-6.17c0-2.761 2.239-5 5-5s5 2.239 5 5v6.138c1.071.11 2.131.257 3.173.44 6.583 1.16 12.634 3.817 16.468 7.999 1.823 1.988 3.154 4.307 3.84 6.961zm-33.481-5.325c-1.154.163-2.277.383-3.354.661-2.903.75-5.386 1.89-7.04 3.406-.536.492-.984 1.002-1.338 1.521-.745 1.09-1.095 2.251-1.013 3.369.084 1.14.634 2.34 1.692 3.494.553.603 1.234 1.188 2.045 1.742 2.224 1.519 5.477 2.575 9.007 3.446v-17.64zm10 47.208c1.869-.176 3.677-.488 5.359-.934 4.149-1.099 7.311-2.872 8.075-5.174.03-.091.087-.302.167-.624.473-1.892-.081-3.441-1.306-4.703-1.832-1.888-4.902-3.411-8.571-4.629-1.077-.357-2.331-.714-3.724-1.067v17.132z" fill="#fcdb35" fill-rule="evenodd"/></g></svg>