<?xml version="1.0" encoding="UTF-8"?>
<svg xmlns="http://www.w3.org/2000/svg" id="Layer_3" data-name="Layer 3" viewBox="0 0 64 64" width="512" height="512"><path d="M48,28v2.515a6,6,0,0,0,1.757,4.242l1.486,1.486A6,6,0,0,1,53,40.485V57a5,5,0,0,1-5,5H18a5,5,0,0,1-5-5V40.485a6,6,0,0,1,1.757-4.242l1.486-1.486A6,6,0,0,0,18,30.515V28H17a2,2,0,0,1-2-2V24a2,2,0,0,1,2-2H49a2,2,0,0,1,2,2v2a2,2,0,0,1-2,2Z" style="fill:#e2e7f6"/><path d="M17,22a2,2,0,0,0-2,2v2a2,2,0,0,0,2,2h1v2.515a6,6,0,0,1-1.757,4.242l-1.486,1.486A6,6,0,0,0,13,40.485V57a4.988,4.988,0,0,0,.1,1H44a2,2,0,0,0,2-2V22Z" style="fill:#f2f2f2"/><circle cx="33" cy="35" r="9" style="fill:#d5883e"/><path d="M24,35a8.973,8.973,0,0,0,2.608,6.334,9,9,0,0,0,9.784-14.668A9,9,0,0,0,24,35Z" style="fill:#f3a748"/><path d="M33,34a1,1,0,1,1,1-1h2a3,3,0,0,0-2-2.816V29H32v1.184A2.993,2.993,0,0,0,33,36a1,1,0,1,1-1,1H30a3,3,0,0,0,2,2.816V41h2V39.816A2.993,2.993,0,0,0,33,34Z" style="fill:#fce797"/><path d="M31,23.857V19l4.114-5.143h0L37,17l-6.475,7.4A2.124,2.124,0,0,0,30,25.8v.082A2.122,2.122,0,0,0,32.121,28h0a2.12,2.12,0,0,0,1.5-.621L41,20l7-3,2-3,10-2V2H42L33,5,27,17V27a1.993,1.993,0,0,0,.292,1.041h0a9.011,9.011,0,0,1,2.8-1.56" style="fill:#fbe1ca"/><circle cx="40" cy="49" r="9" style="fill:#f4a93c"/><path d="M31,49a9,9,0,0,0,4.674,7.892,8.994,8.994,0,0,0,5.652-16.784A8.94,8.94,0,0,0,31,49Z" style="fill:#f6b940"/><path d="M40,48a1,1,0,1,1,1-1h2a3,3,0,0,0-2-2.816V43H39v1.184A2.993,2.993,0,0,0,40,50a1,1,0,1,1-1,1H37a3,3,0,0,0,2,2.816V55h2V53.816A2.993,2.993,0,0,0,40,48Z" style="fill:#fce797"/><circle cx="26" cy="49" r="9" style="fill:#f9d266"/><path d="M17,49a9,9,0,0,0,4.674,7.892,8.994,8.994,0,0,0,5.652-16.784A8.94,8.94,0,0,0,17,49Z" style="fill:#fce797"/><path d="M26,48a1,1,0,1,1,1-1h2a3,3,0,0,0-2-2.816V43H25v1.184A2.993,2.993,0,0,0,26,50a1,1,0,1,1-1,1H23a3,3,0,0,0,2,2.816V55h2V53.816A2.993,2.993,0,0,0,26,48Z" style="fill:#f4a93c"/><path d="M14,8h0a8.062,8.062,0,0,0,5.531-4.828L20,2l.469,1.172A8.062,8.062,0,0,0,26,8h0a8.062,8.062,0,0,0-5.531,4.828L20,14l-.469-1.172A8.062,8.062,0,0,0,14,8Z" style="fill:#fce797"/><path d="M4,18H4a8.062,8.062,0,0,0,5.531-4.828L10,12l.469,1.172A8.062,8.062,0,0,0,16,18h0a8.062,8.062,0,0,0-5.531,4.828L10,24l-.469-1.172A8.062,8.062,0,0,0,4,18Z" style="fill:#fce797"/><path d="M43,19.145V26a2,2,0,0,1-2,2h0a2,2,0,0,1-2-2V22l2-2,2-.857Z" style="fill:#fccda9"/></svg>
