<svg id="Layer_1" height="512" viewBox="0 0 256 256" width="512" xmlns="http://www.w3.org/2000/svg"><g><g><g><g><path d="m220.835 82.064h-52.17v15h52.17c1.378 0 2.5 1.122 2.5 2.5v12.99c0 1.378-1.121 2.5-2.498 2.5-24.77.006-52.173.01-52.173.01v15s27.406-.004 52.177-.01c9.646-.002 17.494-7.853 17.494-17.5v-12.99c0-9.649-7.85-17.5-17.5-17.5z" fill="#414042"/></g></g><g><g><path d="m35.165 112.064h52.17v15h-52.17c-1.378 0-2.5 1.122-2.5 2.5v32.99c0 1.378 1.121 2.5 2.498 2.5 24.77.006 52.173.01 52.173.01v15s-27.406-.004-52.177-.01c-9.646-.002-17.494-7.853-17.494-17.5v-32.99c0-9.649 7.85-17.5 17.5-17.5z" fill="#414042"/></g></g><g><g><path d="m83.335 22.564h-15v15h5.5c1.105 0 2 .895 2 2v36.5h15v-46c0-4.142-3.358-7.5-7.5-7.5z" fill="#414042"/></g></g><g><g><g><path d="m66.335 41.064h-6c-1.105 0-2-.895-2-2v-18c0-1.105.895-2 2-2h6c1.105 0 2 .895 2 2v18c0 1.105-.895 2-2 2z" fill="#58595b"/></g></g></g><g><g><g><path d="m166.21 32.386h15v50.5h-15z" fill="#414042"/></g></g><g><g><g><path d="m162.71 30.386v-6c0-1.105.895-2 2-2h18c1.105 0 2 .895 2 2v6c0 1.105-.895 2-2 2h-18c-1.105 0-2-.895-2-2z" fill="#58595b"/></g></g></g></g><g><g><g><g><path d="m115.009 25.783h23.653v30h-23.653z" fill="#7c3108" transform="matrix(0 -1 1 0 86.052 167.618)"/></g></g><g><g><path d="m146.835 26.956v-6.519c0-1.105-.895-2-2-2h-36c-1.105 0-2 .895-2 2v6.519c0 1.105.895 2 2 2h36c1.105 0 2-.895 2-2z" fill="#ef7816"/></g></g><g><g><path d="m141.835 18.437h-30c0-8.242 6.681-14.923 14.923-14.923h.154c8.242 0 14.923 6.682 14.923 14.923z" fill="#995222"/></g></g></g><g><g><path d="m72.432 185.464h108.806c17.91-15.347 29.273-38.114 29.273-63.549 0-46.213-37.463-83.676-83.676-83.676s-83.676 37.463-83.676 83.676c0 25.435 11.363 48.202 29.273 63.549z" fill="#ffa91a"/></g></g><g><g><circle cx="126.835" cy="121.915" fill="#995222" r="57.5"/></g></g><g><g><path d="m164.908 78.842c8.972 10.142 14.427 23.467 14.427 38.073 0 31.757-25.744 57.5-57.5 57.5-14.606 0-27.931-5.456-38.073-14.427 10.535 11.91 25.922 19.427 43.073 19.427 31.756 0 57.5-25.743 57.5-57.5 0-17.151-7.518-32.538-19.427-43.073z" fill="#8c3f0a"/></g></g><g><g><g><g><g><circle cx="126.835" cy="121.717" fill="#fcc4ae" r="40.242"/></g></g><g><g><path d="m152.676 90.875c5.864 6.992 9.401 16.002 9.401 25.841 0 22.225-18.017 40.242-40.242 40.242-9.839 0-18.85-3.536-25.841-9.4 7.382 8.801 18.456 14.4 30.841 14.4 22.225 0 40.242-18.017 40.242-40.242 0-12.385-5.6-23.459-14.401-30.841z" fill="#f2ad97"/></g></g><g><g><g><g><path d="m126.835 93.753c-1.104 0-2-.896-2-2v-4.843c0-1.104.896-2 2-2s2 .896 2 2v4.844c0 1.104-.896 1.999-2 1.999z" fill="#414042"/></g></g><g><g><path d="m126.835 159.779c-1.104 0-2-.896-2-2v-4.844c0-1.104.896-2 2-2s2 .896 2 2v4.844c0 1.104-.896 2-2 2z" fill="#414042"/></g></g></g><g><g><g><path d="m96.244 124.344h-4.844c-1.104 0-2-.896-2-2s.896-2 2-2h4.844c1.104 0 2 .896 2 2s-.895 2-2 2z" fill="#414042"/></g></g><g><g><path d="m162.27 124.344h-4.844c-1.104 0-2-.896-2-2s.896-2 2-2h4.844c1.104 0 2 .896 2 2s-.896 2-2 2z" fill="#414042"/></g></g></g><g><g><path d="m129.917 123.518h-6.165l2.573-28.462c.056-.621.963-.621 1.02 0z" fill="#e63950"/></g></g><g><g><path d="m124.579 120.294 5.339 3.082-13.355 17.816c-.326.435-1.004.042-.789-.457z" fill="#e63950"/></g></g><g><g><circle cx="126.835" cy="122.344" fill="#414042" r="3.743"/></g></g></g><g><g><path d="" fill="none"/></g></g></g></g></g><g><g><path d="m62.441 80.516c-.385 0-.775-.111-1.118-.343-.915-.619-1.155-1.862-.537-2.777 12.433-18.388 32.06-30.862 53.851-34.225 1.096-.167 2.114.58 2.282 1.671.168 1.092-.58 2.113-1.671 2.282-20.695 3.193-39.337 15.043-51.148 32.512-.387.572-1.017.88-1.659.88zm60.454-34.179c-1.059 0-1.942-.831-1.996-1.899-.056-1.103.794-2.042 1.897-2.098l.658-.03c1.117-.039 2.036.813 2.081 1.916.045 1.104-.813 2.035-1.916 2.081l-.622.028c-.035.001-.069.002-.102.002z" fill="#ffc91d"/></g></g><g><g><path d="m180.78 57.97c12.302 14.568 19.731 33.385 19.731 53.945 0 31.751-17.686 59.372-43.743 73.549h24.469c17.91-15.347 29.273-38.114 29.273-63.549.001-25.653-11.554-48.596-29.73-63.945z" fill="#f79219"/></g></g><g><g><path d="m183.443 60.306c13.698 14.899 22.068 34.774 22.068 56.609 0 28.365-14.128 53.417-35.716 68.549h11.442c17.91-15.347 29.273-38.114 29.273-63.549.001-24.379-10.431-46.316-27.067-61.609z" fill="#ef7816"/></g></g><g><g><path d="m72.432 185.464h108.806v15.333h-108.806z" fill="#414042"/></g></g><g><g><path d="m196.238 242.486h-138.806v-31.688c0-5.523 4.477-10 10-10h118.806c5.523 0 10 4.477 10 10z" fill="#939598"/></g></g><g><g><path d="m190.348 201.688c.567 1.255.89 2.643.89 4.11v26.688c0 2.761-2.239 5-5 5h-128.806v5h138.806v-31.688c0-4.057-2.42-7.542-5.89-9.11z" fill="#808285"/></g></g><g><g><path d="m200.335 242.486h-147c-2.761 0-5 2.239-5 5 0 2.761 2.239 5 5 5h147c2.761 0 5-2.239 5-5 0-2.762-2.238-5-5-5z" fill="#414042"/></g></g><g><g><path d="m126.835 233.486c-1.657 0-3-1.343-3-3v-17.688c0-1.657 1.343-3 3-3s3 1.343 3 3v17.688c0 1.657-1.343 3-3 3z" fill="#58595b"/></g></g><g><g><path d="m108.835 233.486c-1.657 0-3-1.343-3-3v-17.688c0-1.657 1.343-3 3-3s3 1.343 3 3v17.688c0 1.657-1.343 3-3 3z" fill="#58595b"/></g></g><g><g><path d="m90.835 233.486c-1.657 0-3-1.343-3-3v-17.688c0-1.657 1.343-3 3-3s3 1.343 3 3v17.688c0 1.657-1.343 3-3 3z" fill="#58595b"/></g></g><g><g><path d="m72.835 233.486c-1.657 0-3-1.343-3-3v-17.688c0-1.657 1.343-3 3-3s3 1.343 3 3v17.688c0 1.657-1.343 3-3 3z" fill="#58595b"/></g></g><g><g><path d="m144.835 233.486c-1.657 0-3-1.343-3-3v-17.688c0-1.657 1.343-3 3-3s3 1.343 3 3v17.688c0 1.657-1.343 3-3 3z" fill="#58595b"/></g></g><g><g><path d="m162.835 233.486c-1.657 0-3-1.343-3-3v-17.688c0-1.657 1.343-3 3-3s3 1.343 3 3v17.688c0 1.657-1.343 3-3 3z" fill="#58595b"/></g></g><g><g><path d="m180.835 233.486c-1.657 0-3-1.343-3-3v-17.688c0-1.657 1.343-3 3-3s3 1.343 3 3v17.688c0 1.657-1.343 3-3 3z" fill="#58595b"/></g></g></g></g><g><g><g><circle cx="126.835" cy="73.564" fill="#ffc91d" r="4"/></g></g><g><g><circle cx="126.835" cy="170.564" fill="#ffc91d" r="4"/></g></g></g><g><g><g><circle cx="78.335" cy="122.064" fill="#ffc91d" r="4"/></g></g><g><g><circle cx="175.335" cy="122.064" fill="#ffc91d" r="4"/></g></g></g><g><g><g><circle cx="92.54" cy="87.769" fill="#ffc91d" r="4"/></g></g><g><g><circle cx="161.13" cy="156.359" fill="#ffc91d" r="4"/></g></g></g><g><g><g><circle cx="161.13" cy="87.769" fill="#ffc91d" r="4"/></g></g><g><g><circle cx="92.54" cy="156.359" fill="#ffc91d" r="4"/></g></g></g></g></svg>