<svg id="Capa_1" enable-background="new 0 0 512 512" height="512" viewBox="0 0 512 512" width="512" xmlns="http://www.w3.org/2000/svg"><g><path d="m343.108 479.152-223.937 32.848c-18.452 0-33.411-14.958-33.411-33.411v-393.493l-33.82-85.096h329.878c18.452 0 33.411 14.958 33.411 33.411v393.493z" fill="#f2fbff"/><path d="m392.12 0h-30.905c18.452 0 33.411 14.958 33.411 33.411v413.084l30.905-19.592v-393.492c0-18.453-14.959-33.411-33.411-33.411z" fill="#c8effe"/><path d="m24.093 85.096h61.667v-51.685c0-18.453-14.958-33.411-33.411-33.411-18.452 0-33.41 14.958-33.41 33.411v46.532c0 2.846 2.307 5.153 5.154 5.153z" fill="#6bd9e7"/><path d="m157.323 426.903c-2.845 0-5.151 2.306-5.151 5.151v46.535c0 18.452-14.958 33.411-33.411 33.411h329.878 10.302c18.452 0 23.109-14.958 23.109-33.411v-46.535c0-2.845-2.306-5.151-5.151-5.151z" fill="#6bd9e7"/><path d="m487.201 426.903h-30.906c2.845 0 5.151 2.306 5.151 5.151v46.535c0 18.452-14.958 33.411-33.41 33.411h30.905c18.452 0 33.41-14.958 33.41-33.411v-46.535c.001-2.844-2.305-5.151-5.15-5.151z" fill="#02c7dd"/><path d="m482.869 156.877c0 37.296-20.042 66.511-57.338 66.511-5.26 0-10.379.418-15.293-.72-29.93-6.929-52.238-33.755-52.238-65.791s22.308-58.862 52.237-65.791c4.914-1.138 10.033-.72 15.293-.72 37.297 0 57.339 29.215 57.339 66.511z" fill="#fe7ab6"/><g><path d="m451.652 164.603h-26.121c-4.268 0-7.726-3.459-7.726-7.726v-42.475c0-4.268 3.459-7.726 7.726-7.726 4.268 0 7.726 3.459 7.726 7.726v34.748h18.394c4.268 0 7.726 3.459 7.726 7.726.001 4.269-3.458 7.727-7.725 7.727z" fill="#f2fbff"/></g><path d="m425.531 89.347c-5.261 0-10.374.621-15.289 1.759 29.928 6.931 52.242 33.736 52.242 65.771s-22.314 58.84-52.242 65.771c4.915 1.138 10.028 1.76 15.289 1.76 37.296 0 67.531-30.234 67.531-67.531s-30.235-67.53-67.531-67.53z" fill="#fe3d97"/><g><path d="m216.73 281.113h-86.289c-4.267 0-7.726-3.459-7.726-7.726 0-4.268 3.459-7.726 7.726-7.726h86.289c4.267 0 7.726 3.459 7.726 7.726s-3.459 7.726-7.726 7.726z" fill="#a79ba7"/></g><g><path d="m216.73 330.638h-86.289c-4.267 0-7.726-3.459-7.726-7.726s3.459-7.726 7.726-7.726h86.289c4.267 0 7.726 3.459 7.726 7.726s-3.459 7.726-7.726 7.726z" fill="#a79ba7"/></g><g><path d="m247.636 380.163h-117.195c-4.267 0-7.726-3.459-7.726-7.726 0-4.268 3.459-7.726 7.726-7.726h117.195c4.267 0 7.726 3.459 7.726 7.726s-3.459 7.726-7.726 7.726z" fill="#a79ba7"/></g><g><path d="m299.145 62.193h-168.704c-4.267 0-7.726-3.459-7.726-7.726s3.459-7.726 7.726-7.726h168.704c4.268 0 7.726 3.459 7.726 7.726s-3.459 7.726-7.726 7.726z" fill="#a79ba7"/></g><g><path d="m299.145 111.718h-168.704c-4.267 0-7.726-3.459-7.726-7.726 0-4.268 3.459-7.726 7.726-7.726h168.704c4.268 0 7.726 3.459 7.726 7.726 0 4.268-3.459 7.726-7.726 7.726z" fill="#a79ba7"/></g><path d="m447.162 344.504h-121.718v21.378c0 5.443-6.259 8.507-10.558 5.166l-55.296-42.97c-3.371-2.619-3.371-7.713 0-10.332l55.297-42.971c4.298-3.34 10.557-.277 10.557 5.166v21.378h121.718c3.555 0 6.437 2.882 6.437 6.437v30.311c0 3.555-2.882 6.437-6.437 6.437z" fill="#6cf5c2"/><g><path d="m457.464 301.319h-30.905c3.555 0 6.437 2.882 6.437 6.437v30.311c0 3.555-2.882 6.437-6.437 6.437h30.905c3.555 0 6.437-2.882 6.437-6.437v-30.311c-.001-3.555-2.882-6.437-6.437-6.437z" fill="#05e39c"/></g><path d="m54.536 167.496h132.02v-10.732c0-5.443 7.962-4.436 12.26-1.096l38.427 28.255c3.371 2.619 3.371 7.713 0 10.333l-39.78 33.666c-4.298 3.34-10.907-1.064-10.907-6.507v-10.732h-132.02c-3.555 0-6.437-2.882-6.437-6.437v-30.311c.001-3.557 2.882-6.439 6.437-6.439z" fill="#fe7ab6"/><path d="m252.41 183.922-55.296-42.97c-4.298-3.34-10.558-.277-10.558 5.166v10.646l34.949 27.158c3.371 2.62 3.371 7.713 0 10.333l-34.949 27.158v10.646c0 5.443 6.259 8.506 10.557 5.166l55.297-42.97c3.371-2.62 3.371-7.713 0-10.333z" fill="#fe3d97"/></g></svg>