<svg id="Layer_1" height="512" viewBox="0 0 240 240" width="512" xmlns="http://www.w3.org/2000/svg" data-name="Layer 1"><path d="m192.407 68.746v25.554a4.271 4.271 0 0 1 -4.259 4.259h-157.592a25.54 25.54 0 0 1 -6.6-50.216 23.945 23.945 0 0 1 6.6-.9h140.555a21.3 21.3 0 0 1 21.296 21.303z" fill="#c6e5ff"/><path d="m192.407 68.746v25.554a4.271 4.271 0 0 1 -4.259 4.259h-157.592a25.313 25.313 0 0 1 -12.737-3.407c-.041-1.32-.041-2.641-.041-4a149.6 149.6 0 0 1 6.177-42.8 23.945 23.945 0 0 1 6.6-.9h140.556a21.3 21.3 0 0 1 21.296 21.294z" fill="#eaf7ff"/><path d="m192.407 68.746v25.554a4.271 4.271 0 0 1 -4.259 4.259h-90.041a102.507 102.507 0 0 1 -5.919-51.111h78.923a21.3 21.3 0 0 1 21.296 21.298z" fill="#fff"/><path d="m203.523 90.723a1.5 1.5 0 0 1 -.041.426 14.235 14.235 0 0 1 -3.582 7.411 16.678 16.678 0 0 1 -1.533 1.491l-65.719 55.157-30.748 25.812a4.058 4.058 0 0 1 -2.726.979 4.225 4.225 0 0 1 -3.236-1.491l-71.218-84.802a4.394 4.394 0 0 1 -.98-3.109 4.2 4.2 0 0 1 1.491-2.9l21.255-17.842 62.014-52.048 13.2-11.075a14.512 14.512 0 0 1 9.713-3.492 12.1 12.1 0 0 1 9.2 4.344l60.228 71.726a11.291 11.291 0 0 1 2.343 4.473 11.952 11.952 0 0 1 .339 4.94z" fill="#fe9c39"/><path d="m203.523 90.723a1.5 1.5 0 0 1 -.041.426 14.235 14.235 0 0 1 -3.582 7.411 16.678 16.678 0 0 1 -1.533 1.491l-65.719 55.157a141.578 141.578 0 0 1 -86.162-83.353l62.014-52.048 13.2-11.075a14.512 14.512 0 0 1 9.713-3.492 12.1 12.1 0 0 1 9.2 4.344l60.228 71.726a11.291 11.291 0 0 1 2.343 4.473 11.952 11.952 0 0 1 .339 4.94z" fill="#fed154"/><path d="m203.523 90.723c-.553.043-1.106.043-1.659.043a96.628 96.628 0 0 1 -93.364-70.959l13.2-11.075a14.512 14.512 0 0 1 9.713-3.492 12.1 12.1 0 0 1 9.2 4.344l60.228 71.726a11.291 11.291 0 0 1 2.343 4.473 11.952 11.952 0 0 1 .339 4.94z" fill="#feec88"/><path d="m85.487 165.706a4.242 4.242 0 0 1 -3.262-1.52l-43.815-52.176a4.267 4.267 0 0 1 .524-6.01l74.2-62.27a4.264 4.264 0 0 1 6 .524c3.292 3.923 13.386 2.266 18.229-1.8a4.264 4.264 0 0 1 6 .524l25.037 29.822a4.259 4.259 0 0 1 -.519 6c-4.843 4.063-8.225 13.706-4.928 17.637a4.253 4.253 0 0 1 -.529 6l-74.2 62.271a4.245 4.245 0 0 1 -2.735 1m-37.815-55.917 38.333 45.659 68.216-57.24c-2.905-7.3.388-16.846 5.2-22.847l-20.129-23.984c-6.746 3.706-16.721 5.29-23.413 1.176z" fill="#fff"/><path d="m217.963 111.338v102.222a21.305 21.305 0 0 1 -21.3 21.3h-170.363a21.305 21.305 0 0 1 -21.3-21.3v-136.296a2.834 2.834 0 0 1 .212-1.193 25.371 25.371 0 0 0 12.607 19.039 24.918 24.918 0 0 0 12.737 3.45h169.344a14.235 14.235 0 0 0 3.579-7.411 21.315 21.315 0 0 1 14.484 20.189z" fill="#566ff8"/><path d="m217.963 111.338v102.222a21.305 21.305 0 0 1 -21.3 21.3h-76.534c-58.438-20.49-100.648-75.137-102.31-139.75a24.918 24.918 0 0 0 12.737 3.45h169.344a14.235 14.235 0 0 0 3.579-7.411 21.315 21.315 0 0 1 14.484 20.189z" fill="#6c95f8"/><path d="m217.963 111.338v51.58a102.872 102.872 0 0 1 -22.149 2.385 104.551 104.551 0 0 1 -97.707-66.743h101.793a14.235 14.235 0 0 0 3.579-7.411 21.315 21.315 0 0 1 14.484 20.189z" fill="#8fb6f8"/><path d="m235 149.671v34.075a12.815 12.815 0 0 1 -12.778 12.777h-34.074a29.848 29.848 0 0 1 -29.815-29.815 25.608 25.608 0 0 1 .427-4.812 29.813 29.813 0 0 1 29.388-25h34.074a12.97 12.97 0 0 1 8.007 2.811 12.841 12.841 0 0 1 4.771 9.964z" fill="#fe9c39"/><path d="m230.229 139.705a139.868 139.868 0 0 1 -30.751 56.818h-11.33a29.848 29.848 0 0 1 -29.815-29.815 25.608 25.608 0 0 1 .427-4.812 29.813 29.813 0 0 1 29.388-25h34.074a12.97 12.97 0 0 1 8.007 2.809z" fill="#fed154"/><path d="m190.407 136.894a96.578 96.578 0 0 1 -31.647 25 29.813 29.813 0 0 1 29.388-25z" fill="#feec88"/><g fill="#fff"><path d="m205.185 166.708a8.519 8.519 0 1 1 -8.518-8.518 8.521 8.521 0 0 1 8.518 8.518"/><path d="m39.074 192.264a4.258 4.258 0 0 1 -4.259-4.259v-42.593a4.259 4.259 0 0 1 8.518 0v42.593a4.258 4.258 0 0 1 -4.259 4.259"/></g></svg>